<svg aria-hidden="true" style="width:0;height:0;position:absolute;overflow:hidden" xmlns="http://www.w3.org/2000/svg"><defs><symbol id="icon-search" viewBox="0 0 31 32"><path fill="#fd5103" style="fill:var(--color1,#fd5103)" d="M12.8 23.68c2.374 0 4.559-.814 6.29-2.177l-.022.017 5.627 5.627 1.81-1.81-5.627-5.627a10.118 10.118 0 0 0 2.162-6.269c0-5.646-4.594-10.24-10.24-10.24S2.56 7.795 2.56 13.441s4.594 10.24 10.24 10.24zm0-17.92c4.236 0 7.68 3.444 7.68 7.68s-3.444 7.68-7.68 7.68-7.68-3.444-7.68-7.68 3.444-7.68 7.68-7.68z"/></symbol><symbol id="icon-arrow" viewBox="0 0 32 32"><path d="m16.724 21.24 10.62-11.147a.999.999 0 0 0 0-1.379l-.012-.013a.918.918 0 0 0-1.333 0l-10 10.497L6.003 8.702a.917.917 0 0 0-1.334-.001l-.012.012a.995.995 0 0 0 .001 1.38l10.62 11.147a.997.997 0 0 0 1.448 0z"/></symbol><symbol id="icon-heart" viewBox="0 0 35 32"><path fill="#fd5103" style="fill:var(--color1,#fd5103)" d="m17.684 32-2.565-2.302C6.012 21.555 0 16.186 0 9.592 0 4.219 4.28 0 9.726 0c3.077 0 6.029 1.413 7.958 3.645A10.636 10.636 0 0 1 25.638 0h.003c5.447 0 9.726 4.221 9.726 9.592 0 6.592-6.013 11.963-15.119 20.125l-2.565 2.284z"/><path fill="#fcfcfc" style="fill:var(--color2,#fcfcfc)" d="m17.684 28.632-2.075-1.817C8.236 20.386 3.368 16.146 3.368 10.941c0-4.241 3.464-7.572 7.874-7.572 2.491 0 4.881 1.115 6.442 2.877a8.7 8.7 0 0 1 6.441-2.877h.002c4.409 0 7.874 3.331 7.874 7.572 0 5.204-4.867 9.443-12.241 15.887l-2.075 1.804z"/></symbol></defs></svg>