<svg aria-hidden="true" style="position: absolute; width: 0; height: 0; overflow: hidden;" version="1.1" xmlns="http://www.w3.org/2000/svg" xmlns:xlink="http://www.w3.org/1999/xlink">
<defs>
<symbol id="icon-search" viewBox="0 0 31 32">
<path fill="#fd5103" style="fill: var(--color1, #fd5103)" d="M12.8 23.68c2.374-0 4.559-0.814 6.29-2.177l-0.022 0.017 5.627 5.627 1.81-1.81-5.627-5.627c1.347-1.71 2.161-3.894 2.162-6.269v-0c0-5.646-4.594-10.24-10.24-10.24s-10.24 4.594-10.24 10.24 4.594 10.24 10.24 10.24zM12.8 5.76c4.236 0 7.68 3.444 7.68 7.68s-3.444 7.68-7.68 7.68-7.68-3.444-7.68-7.68 3.444-7.68 7.68-7.68z"></path>
</symbol>
<symbol id="icon-arrow" viewBox="0 0 32 32">
<path d="M16.724 21.24l10.62-11.147c0.171-0.179 0.276-0.422 0.276-0.689s-0.105-0.51-0.276-0.69l0 0-0.012-0.013c-0.168-0.176-0.404-0.286-0.667-0.286s-0.499 0.11-0.666 0.286l-0 0-10 10.497-9.996-10.496c-0.168-0.177-0.405-0.287-0.667-0.287s-0.499 0.11-0.667 0.286l-0 0-0.012 0.012c-0.171 0.179-0.276 0.422-0.276 0.69s0.105 0.511 0.277 0.69l-0-0 10.62 11.147c0.182 0.191 0.439 0.31 0.724 0.31s0.541-0.119 0.724-0.31l0-0z"></path>
</symbol>
<symbol id="icon-heart" viewBox="0 0 35 32">
<path fill="#fd5103" style="fill: var(--color1, #fd5103)" d="M17.684 32l-2.565-2.302c-9.107-8.143-15.119-13.512-15.119-20.106 0-5.373 4.28-9.592 9.726-9.592 3.077 0 6.029 1.413 7.958 3.645 1.949-2.223 4.788-3.625 7.954-3.645l0.003-0c5.447 0 9.726 4.221 9.726 9.592 0 6.592-6.013 11.963-15.119 20.125l-2.565 2.284z"></path>
<path fill="#fcfcfc" style="fill: var(--color2, #fcfcfc)" d="M17.684 28.632l-2.075-1.817c-7.373-6.429-12.241-10.669-12.241-15.874 0-4.241 3.464-7.572 7.874-7.572 2.491 0 4.881 1.115 6.442 2.877 1.595-1.763 3.889-2.868 6.441-2.877h0.002c4.409 0 7.874 3.331 7.874 7.572 0 5.204-4.867 9.443-12.241 15.887l-2.075 1.804z"></path>
</symbol>
</defs>
</svg>